<?xml version="1.0" standalone="no"?><svg xmlns="http://www.w3.org/2000/svg" viewBox="0 0 1440 320"><path fill="#273036" fill-opacity="1" d="M0,96L40,101.3C80,107,160,117,240,149.3C320,181,400,235,480,224C560,213,640,139,720,117.3C800,96,880,128,960,138.7C1040,149,1120,139,1200,128C1280,117,1360,107,1400,101.3L1440,96L1440,320L1400,320C1360,320,1280,320,1200,320C1120,320,1040,320,960,320C880,320,800,320,720,320C640,320,560,320,480,320C400,320,320,320,240,320C160,320,80,320,40,320L0,320Z"></path></svg>